HIERARCHY
ROOT Hips
{
    OFFSET 0.000000 0.000000 0.000000
    CHANNELS 6 Xposition Yposition Zposition Zrotation Xrotation Yrotation
    JOINT Spine
    {
        OFFSET -0.000000 8.505030 0.000000
        CHANNELS 3 Zrotation Xrotation Yrotation
        JOINT Spine1
        {
            OFFSET -0.000000 25.070629 0.000000
            CHANNELS 3 Zrotation Xrotation Yrotation
            JOINT Neck
            {
                OFFSET -0.000000 24.967667 2.269788
                CHANNELS 3 Zrotation Xrotation Yrotation
                JOINT Head
                {
                    OFFSET -0.000000 14.520781 -2.074397
                    CHANNELS 3 Zrotation Xrotation Yrotation
                    End Site
                    {
                        OFFSET -0.000000 25.929966 0.000000
                    }
                }
            }
            JOINT LeftShoulder
            {
                OFFSET 4.117346 22.983784 -0.389865
                CHANNELS 3 Zrotation Xrotation Yrotation
                JOINT LeftArm
                {
                    OFFSET 11.957758 0.000000 0.000000
                    CHANNELS 3 Zrotation Xrotation Yrotation
                    JOINT LeftForeArm
                    {
                        OFFSET 31.907600 0.000000 0.000000
                        CHANNELS 3 Zrotation Xrotation Yrotation
                        JOINT LeftHand
                        {
                            OFFSET 28.601147 0.000000 0.000000
                            CHANNELS 3 Zrotation Xrotation Yrotation
                            End Site
                            {
                                OFFSET 15.557981 0.000000 0.000000
                            }
                        }
                    }
                }
            }
            JOINT RightShoulder
            {
                OFFSET -4.061940 22.983784 -0.389865
                CHANNELS 3 Zrotation Xrotation Yrotation
                JOINT RightArm
                {
                    OFFSET -11.957758 0.000000 0.000000
                    CHANNELS 3 Zrotation Xrotation Yrotation
                    JOINT RightForeArm
                    {
                        OFFSET -31.907600 0.000000 0.000000
                        CHANNELS 3 Zrotation Xrotation Yrotation
                        JOINT RightHand
                        {
                            OFFSET -28.601147 0.000000 0.000000
                            CHANNELS 3 Zrotation Xrotation Yrotation
                            End Site
                            {
                                OFFSET -15.557981 0.000000 0.000000
                            }
                        }
                    }
                }
            }
        }
    }
    JOINT LeftUpLeg
    {
        OFFSET 10.371986 0.000000 0.000000
        CHANNELS 3 Zrotation Xrotation Yrotation
        JOINT LeftLeg
        {
            OFFSET -0.000000 -42.486427 0.000000
            CHANNELS 3 Zrotation Xrotation Yrotation
            JOINT LeftFoot
            {
                OFFSET -0.000000 -48.322342 0.000000
                CHANNELS 3 Zrotation Xrotation Yrotation
                JOINT LeftToeBase
                {
                    OFFSET -0.000000 -6.741791 15.557981
                    CHANNELS 3 Zrotation Xrotation Yrotation
                    End Site
                    {
                        OFFSET -0.000000 0.000000 4.148795
                    }
                }
            }
        }
    }
    JOINT RightUpLeg
    {
        OFFSET -10.371986 0.000000 0.000000
        CHANNELS 3 Zrotation Xrotation Yrotation
        JOINT RightLeg
        {
            OFFSET -0.000000 -42.486427 0.000000
            CHANNELS 3 Zrotation Xrotation Yrotation
            JOINT RightFoot
            {
                OFFSET -0.000000 -48.322342 0.000000
                CHANNELS 3 Zrotation Xrotation Yrotation
                JOINT RightToeBase
                {
                    OFFSET -0.000000 -6.741791 15.557981
                    CHANNELS 3 Zrotation Xrotation Yrotation
                    End Site
                    {
                        OFFSET -0.000000 0.000000 4.148795
                    }
                }
            }
        }
    }
}
MOTION
Frames:    14
Frame Time:    0.008333
14.758815    94.334808    43.894478    -1.435188    -0.458047    72.148369    -2.627176    -5.929778    -0.100430    5.728735    0.712991    0.000719    3.723661    30.260859    1.239935    -8.187205    -0.285241    0.613758    10.777226    -3.662468    -15.293008    -33.217251    -5.126804    -17.324589    50.574863    -15.059625    -50.337635    56.842823    10.300748    -0.512363    -12.710783    7.855222    -14.511467    67.844246    68.900139    13.671013    -4.968786    -16.011553    25.208168    25.577526    -15.504641    -2.576278    10.006674    -14.717533    6.217728    -3.199297    34.227421    9.222504    -7.759562    -17.353233    8.208295    0.000000    0.000000    0.000000    -4.436557    -6.701231    3.609239    2.686522    30.655703    -1.938347    5.326576    -21.850395    -13.317836    0.000000    0.000000    0.000000    
14.828606    94.335701    43.817745    -1.448767    -0.508351    72.155563    -2.609436    -5.958157    -0.079002    5.677257    0.754776    0.019933    4.041476    30.538069    1.178530    -8.529931    -0.711222    0.524208    10.844208    -3.675170    -15.353029    -33.150749    -5.354130    -17.234814    50.494274    -14.616610    -50.287369    57.551388    10.119207    -1.530959    -12.649893    7.846466    -14.520629    67.973877    68.686615    13.493414    -4.728653    -15.925359    25.317137    25.402061    -15.512930    -2.812889    10.001288    -14.745999    5.981138    -3.335427    34.317265    9.249687    -7.707376    -17.416767    8.448677    0.000000    0.000000    0.000000    -4.431562    -6.644606    3.604618    2.659297    30.598394    -1.971176    5.440503    -21.803991    -13.258645    0.000000    0.000000    0.000000    
14.894306    94.347633    43.734032    -1.470019    -0.563257    72.124153    -2.564639    -5.969008    -0.075217    5.644244    0.766943    0.021039    4.073277    30.600080    1.245108    -8.594819    -0.756376    0.587624    10.805218    -3.654367    -15.281530    -32.995289    -5.451673    -17.194357    50.199490    -14.481925    -50.325672    58.232719    9.402160    -2.787646    -12.659029    7.884782    -14.463520    68.023026    68.635529    13.526408    -4.575401    -15.978186    25.261780    24.983288    -15.606783    -2.887214    10.015094    -14.756026    5.868378    -3.451930    34.379658    9.258450    -7.636790    -17.457685    8.660609    0.000000    0.000000    0.000000    -4.437697    -6.595683    3.655615    2.679616    30.512190    -2.023759    5.572266    -21.732176    -13.222486    0.000000    0.000000    0.000000    
14.972477    94.361519    43.648754    -1.485613    -0.595359    72.068665    -2.541833    -6.001699    -0.052307    5.587747    0.816046    0.041560    3.930115    30.532499    1.299158    -8.374488    -0.673136    0.659869    10.842451    -3.685083    -15.181415    -32.888142    -5.486775    -17.173294    50.175911    -14.191005    -50.300247    58.974983    9.478226    -3.088061    -12.647960    7.900748    -14.447817    68.069016    68.914108    13.644284    -4.742065    -16.157955    24.921074    25.000048    -15.716836    -2.659062    10.020020    -14.718747    5.786832    -3.600499    34.398441    9.341011    -7.569585    -17.513332    8.790063    0.000000    0.000000    0.000000    -4.475233    -6.531610    3.681144    2.682696    30.405483    -2.084804    5.736637    -21.661236    -13.113281    0.000000    0.000000    0.000000    
15.028338    94.376846    43.559437    -1.535743    -0.631497    71.941803    -2.506756    -6.012373    0.018018    5.536623    0.788040    0.111437    3.520212    30.131113    1.366100    -7.719355    -0.047319    0.796304    10.857862    -3.688695    -15.113731    -32.752110    -5.534901    -17.127060    49.974236    -14.157970    -50.323471    59.306881    9.186123    -3.458271    -12.658449    7.895158    -14.448484    68.238724    69.071693    13.566963    -4.702121    -16.277798    24.851622    24.637680    -15.843715    -2.677361    10.055501    -14.714662    5.949863    -3.620646    34.424950    9.307014    -7.518167    -17.541080    8.839849    0.000000    0.000000    0.000000    -4.491027    -6.553797    3.721578    2.658988    30.346788    -2.067928    5.878169    -21.565435    -13.014801    0.000000    0.000000    0.000000    
15.129021    94.402496    43.468220    -1.514972    -0.699789    71.816338    -2.478011    -6.007853    0.079305    5.538151    0.823623    0.169724    3.551044    30.193466    1.402144    -7.797446    -0.133079    0.823386    10.826197    -3.720012    -15.000022    -32.615234    -5.555044    -17.131807    49.825687    -14.140398    -50.368118    59.620861    9.244825    -3.255015    -12.727870    7.878819    -14.409966    68.488518    69.014114    13.372303    -4.491539    -16.241919    24.905186    24.571924    -15.879923    -2.825893    10.068137    -14.547985    6.125911    -3.594147    34.325439    9.321370    -7.443029    -17.569075    8.788074    0.000000    0.000000    0.000000    -4.527859    -6.436810    3.762497    2.668140    30.211971    -2.079189    6.068591    -21.446747    -12.833382    0.000000    0.000000    0.000000    
15.216163    94.431076    43.375065    -1.532475    -0.759333    71.706413    -2.461152    -6.023149    0.123650    5.540833    0.836031    0.212921    3.778061    30.430319    1.398027    -8.146612    -0.498180    0.783644    10.850132    -3.777334    -14.897003    -32.552216    -5.390094    -17.083359    49.622643    -14.581195    -50.376736    59.597359    8.815188    -3.018283    -12.666757    7.919064    -14.449342    68.384483    69.256210    13.452809    -4.570517    -16.347834    24.913645    24.453697    -15.976802    -2.877840    10.076213    -14.445804    6.352094    -3.513436    34.275330    9.326779    -7.417178    -17.580851    8.663099    0.000000    0.000000    0.000000    -4.557433    -6.347436    3.791400    2.667999    30.050175    -2.086293    6.230918    -21.322134    -12.719917    0.000000    0.000000    0.000000    
15.308134    94.460701    43.281670    -1.539630    -0.802688    71.618233    -2.485983    -6.038283    0.159441    5.573187    0.850579    0.249254    3.896421    30.464132    1.461006    -8.330602    -0.509445    0.839171    10.889772    -3.692233    -14.887497    -32.485336    -5.587787    -17.004435    49.072601    -15.183735    -50.768536    59.484112    8.352310    -2.580225    -12.673750    7.941468    -14.461401    68.408318    69.575020    13.538338    -4.769584    -16.495895    24.691246    24.606438    -16.069128    -2.749606    10.055880    -14.326808    6.554165    -3.428417    34.182789    9.277311    -7.349102    -17.584494    8.600222    0.000000    0.000000    0.000000    -4.606630    -6.245463    3.749429    2.627683    29.887676    -2.055263    6.443602    -21.195990    -12.557205    0.000000    0.000000    0.000000    
15.397884    94.491432    43.179874    -1.571891    -0.856977    71.478111    -2.491884    -6.033319    0.213017    5.631700    0.770831    0.306397    3.833819    30.494057    1.460583    -8.286386    -0.440527    0.842527    10.819809    -3.680621    -14.890538    -32.372475    -5.686745    -16.877544    48.502140    -15.829688    -51.134003    59.073818    8.085107    -1.665269    -12.673738    7.973975    -14.423469    68.507385    69.626930    13.449094    -4.685318    -16.545002    24.660845    24.579321    -16.147469    -2.801091    10.056283    -14.211187    6.786068    -3.336941    34.069702    9.356494    -7.345400    -17.579678    8.396772    0.000000    0.000000    0.000000    -4.640575    -6.171204    3.750730    2.592831    29.715500    -1.970839    6.606868    -21.062473    -12.507307    0.000000    0.000000    0.000000    
15.487250    94.525162    43.081604    -1.592733    -0.924315    71.386360    -2.513873    -6.075497    0.239701    5.699577    0.823491    0.332336    3.501389    30.052652    1.522665    -7.800156    0.225251    0.960525    10.876443    -3.687070    -14.825134    -32.400558    -5.709060    -16.858250    47.802216    -16.877619    -51.522629    58.269382    7.440993    -0.543114    -12.668273    8.021880    -14.404093    68.442802    69.568039    13.527999    -4.613183    -16.426727    24.625717    24.570686    -16.020969    -2.684690    10.057346    -14.095604    6.860607    -3.324506    33.964104    9.377101    -7.259102    -17.600502    8.397023    0.000000    0.000000    0.000000    -4.683215    -6.078886    3.823167    2.658905    29.550646    -1.985540    6.809867    -20.932259    -12.449305    0.000000    0.000000    0.000000    
15.577608    94.564774    42.958977    -1.619599    -0.933170    71.311234    -2.554671    -6.072419    0.252513    5.729360    0.737271    0.351316    3.766286    30.386644    1.517037    -8.219238    -0.173560    0.916341    10.801696    -3.707910    -14.701549    -32.250740    -6.165971    -16.857420    46.213291    -17.803185    -52.664360    57.529774    7.030742    1.049868    -12.665646    8.025347    -14.328787    68.701241    69.458969    13.224387    -4.478851    -16.384975    24.736088    24.383898    -16.027344    -2.822918    9.994718    -14.038001    6.831958    -3.386720    33.909573    9.373075    -7.212588    -17.595459    8.522469    0.000000    0.000000    0.000000    -4.781559    -5.990113    3.781846    2.631780    29.347515    -1.973632    7.009409    -20.781752    -12.242100    0.000000    0.000000    0.000000    
15.672565    94.598946    42.856270    -1.639576    -0.983901    71.245125    -2.612787    -6.073211    0.264618    5.839262    0.679919    0.368664    3.799820    30.495960    1.503196    -8.332529    -0.259649    0.888316    10.811522    -3.653179    -14.752126    -32.311836    -5.807572    -16.762644    45.712528    -19.654467    -52.791534    56.097446    5.964690    3.179155    -12.639880    8.130612    -14.351013    68.425720    69.116852    13.411579    -4.005627    -16.223402    24.972702    24.022913    -15.997532    -3.064410    9.956575    -13.922118    6.872963    -3.354064    33.790237    9.276839    -7.088018    -17.626287    8.629068    0.000000    0.000000    0.000000    -4.824801    -5.879893    3.828292    2.649478    29.157301    -2.043061    7.238592    -20.644077    -12.111222    0.000000    0.000000    0.000000    
15.761126    94.628799    42.739964    -1.667687    -1.046314    71.191116    -2.597032    -6.075332    0.267463    5.865569    0.663554    0.371375    3.712658    30.625610    1.603985    -8.214446    -0.501912    0.986205    10.777342    -3.639137    -14.650473    -32.248978    -5.713723    -16.810272    44.621983    -21.610136    -53.450676    54.587605    4.748198    5.561341    -12.654011    8.152516    -14.357925    68.556198    69.365807    13.399258    -4.221382    -16.392170    24.731129    23.884077    -16.096138    -2.918646    9.893960    -13.795553    6.922479    -3.250365    33.625134    9.167393    -6.901986    -17.661432    8.646151    0.000000    0.000000    0.000000    -4.857304    -5.777736    3.812025    2.630182    28.964300    -2.056598    7.431240    -20.494894    -11.993512    0.000000    0.000000    0.000000    
15.854265    94.674469    42.611061    -1.671043    -1.021886    71.158722    -2.654857    -6.089484    0.269340    5.861980    0.635115    0.378032    3.418415    30.197958    1.607027    -7.784082    0.160084    1.040180    10.754929    -3.626916    -14.648932    -32.172806    -5.895302    -16.783073    43.384769    -23.174549    -54.378128    53.242191    3.879281    7.895700    -12.684337    8.151579    -14.353595    68.792351    69.474998    13.189402    -4.249413    -16.505850    24.779985    23.643372    -16.226164    -3.068119    9.723256    -13.691146    6.796568    -3.245960    33.461445    9.212617    -6.836215    -17.634865    8.764792    0.000000    0.000000    0.000000    -4.992100    -5.675875    3.733079    2.592267    28.770672    -2.118267    7.699565    -20.335215    -11.760861    0.000000    0.000000    0.000000    
